<?xml version="1.0" encoding="utf-8"?>
<!-- Generator: Adobe Illustrator 14.0.0, SVG Export Plug-In . SVG Version: 6.00 Build 43363)  -->
<!DOCTYPE svg PUBLIC "-//W3C//DTD SVG 1.1//EN" "http://www.w3.org/Graphics/SVG/1.1/DTD/svg11.dtd">
<svg version="1.1" id="Layer_1" xmlns="http://www.w3.org/2000/svg" xmlns:xlink="http://www.w3.org/1999/xlink" x="0px" y="0px"
	 width="266.893px" height="266.895px" viewBox="0 0 266.893 266.895" enable-background="new 0 0 266.893 266.895"
	 xml:space="preserve">
<path d="M248.082,4.588H18.812c-7.855,0-14.224,6.367-14.224,14.224v229.271c0,7.854,6.366,14.225,14.224,14.225h123.432v-99.803
	h-33.585v-38.896h33.585V94.925c0-33.287,20.33-51.413,50.023-51.413c14.226,0,26.45,1.058,30.012,1.533v34.788l-20.596,0.009
	c-16.146,0-19.273,7.674-19.273,18.935v24.831h38.515l-5.016,38.896h-33.499v99.803v0.001h65.673v-0.001
	c7.854,0,14.223-6.369,14.223-14.225V18.812C262.305,10.956,255.937,4.588,248.082,4.588z"/>
</svg>
